<svg width="1440" height="271" viewBox="0 0 1440 271" fill="none" xmlns="http://www.w3.org/2000/svg">
<g clip-path="url(#clip0_101_2)">
<path d="M1029.39 45.675C1020.07 32.867 1005.53 26.528 991.766 24.5808C992.221 22.4822 992.48 20.2971 992.48 18.047C992.48 1.12845 978.764 -12.6097 961.824 -12.6097C954.965 -12.6097 948.669 -10.3381 943.564 -6.53031C932.422 -38.2256 905.421 -58 869.507 -58C833.593 -58 802.633 -42.4228 793.828 -8.93183C780.068 -19.8142 763.301 -16.093 758.238 -0.0398082C759.104 -17.1098 740.195 -41.6872 707.05 -41.6872C689.98 -41.6872 667.696 -34.0717 661.119 -11.1818C654.693 -25.8071 643.248 -29.074 629.705 -27.8191C616.161 -26.5427 605.603 -10.6409 605.473 0.782332C591.952 -7.13608 576.872 -13.367 561.187 -13.3886C545.523 -13.4535 532.52 -8.84525 521.768 2.59966C510.171 14.8883 509.782 35.1171 515.905 50.6726C500.392 47.1678 488.601 57.4444 492.106 72.9783C473.565 64.2811 462.206 64.0214 442.259 68.4133C429.018 71.334 416.513 78.5601 407.751 88.7719C401.412 79.5553 387.825 66.1416 362.837 67.2018C332.721 68.4782 317.403 93.8777 317.403 93.8777C317.403 93.8777 307.43 80.7669 282.268 84.8776C262.667 88.0796 258.664 103.462 258.664 103.462C258.664 103.462 240.188 62.745 171.648 93.9643C116.003 119.321 86.2983 81.4376 76.0865 120.597C77.0385 120.986 107.933 133.232 170.567 141.345C195.295 144.547 218.207 143.162 237.008 140.328C237.051 140.328 237.116 140.35 237.137 140.35C237.137 140.436 247.544 149.09 268.854 154.391C284.215 158.177 298.191 157.809 313.423 148.982C319.264 163.586 332.137 175.269 349.618 176.329C359.007 176.891 368.981 172.737 376.121 168.8C382.157 165.49 386.181 162.331 386.181 162.331C402.277 169.881 418.093 184.117 435.487 183.274C436.201 183.252 436.915 183.187 437.651 183.1C459.783 180.418 481.418 165.446 486.784 143.79C509.565 160.297 548.898 147.143 556.622 137.083C553.874 149.09 559.348 161.985 568.456 170.293C577.543 178.557 589.723 182.776 601.904 184.55C630.83 188.704 661.4 179.466 683.165 159.994C694.48 169.124 710.1 172.672 724.25 169.297C728.706 168.237 737.533 165.295 737.533 165.295C737.533 165.295 741.969 202.031 798.544 217.154C856.894 232.731 906.503 184.701 903.625 162.742C910.549 170.509 932.681 169.925 945.143 163.413C959.292 156.057 965.934 135.85 961.78 122.414C967.384 140.544 1017.66 134.465 1029.91 112.635C1035.17 103.267 1038.48 91.6926 1038.91 80.0746C1039.34 67.8076 1036.55 55.4972 1029.43 45.6966L1029.39 45.675Z" fill="white"/>
<path d="M996.569 37.5185C964.744 31.266 940.838 48.812 935.753 73.2163C934.91 66.4878 925.866 63.4805 919.635 66.1849C913.404 68.9109 909.532 75.1418 906.243 81.0914C908.818 51.4731 876.625 24.4943 847.894 32.1963C821.196 39.3359 788.765 64.6705 791.989 109.736C813.581 92.5147 849.473 97.9884 864.985 120.835C842.29 103.57 805.381 110.147 790.042 134.227C787.013 113.782 757.524 103.44 742.423 117.525C748.2 109.909 754.192 101.753 755.144 92.2551C756.096 82.7573 749.649 71.8533 740.108 71.7019C741.32 60.5166 742.51 48.8769 739.005 38.1676C735.5 27.4366 725.959 17.8307 714.665 18.0687C695.735 18.4365 688.076 42.2566 685.696 61.0142C667.566 59.305 649.631 74.7524 648.614 92.9474C636.628 80.0746 643.053 55.4539 659.799 50.0884C651.253 41.1532 634.919 44.4417 627.541 54.3073C620.142 64.1945 620.229 78.0193 623.906 89.7671C605.56 74.6442 574.882 78.1923 560.494 97.1446C578.776 98.897 596.3 107.248 609.13 120.337C591.065 110.731 567.482 112.57 551.105 124.902C551.559 109.044 528.929 98.4644 517.051 108.957C513.503 95.0893 496.368 86.5867 483.171 92.1036C469.952 97.6638 464.045 115.859 471.488 128.104C455.954 114.15 432.35 109.931 412.965 117.611C427.417 117.2 441.805 125.443 448.771 138.121C431.355 128.732 410.607 126.2 391.33 130.289C382.719 122.869 370.128 115.621 352.582 113.479C312.622 108.59 294.276 135.352 294.276 135.352C294.276 135.352 287.612 122.609 301.805 113.219C301.805 113.219 268.919 108.178 246.679 127.888C246.679 127.888 228.029 108.611 184.586 126.698C167.646 133.751 76 120.662 76 120.662C76.9519 121.051 107.847 133.297 170.48 141.41C195.209 144.612 218.12 143.227 236.921 140.393C236.964 140.393 237.029 140.415 237.051 140.415C237.051 140.501 247.457 149.155 268.768 154.456C284.129 158.242 298.105 157.874 313.336 149.047C319.177 163.651 332.05 175.333 349.531 176.394C358.921 176.956 368.895 172.802 376.034 168.865C382.07 165.554 386.095 162.396 386.095 162.396C402.191 169.946 418.006 184.182 435.401 183.338C436.115 183.317 436.829 183.252 437.564 183.165C459.697 180.483 481.332 165.511 486.697 143.855C509.479 160.362 548.811 147.208 556.535 137.148C553.787 149.155 559.261 162.05 568.369 170.357C577.456 178.622 589.637 182.841 601.817 184.615C630.743 188.769 661.313 179.509 683.078 160.059C694.393 169.189 710.014 172.737 724.163 169.362C728.62 168.302 737.447 165.36 737.447 165.36C737.447 165.36 741.882 202.096 798.458 217.219C856.807 232.796 906.416 184.766 903.539 162.807C910.462 170.574 932.595 169.99 945.056 163.477C959.206 156.122 965.848 135.915 961.694 122.479C967.297 140.609 1017.58 134.53 1029.82 112.7C1035.08 103.332 1038.39 91.7575 1038.82 80.1395C1032.68 56.4275 1017.62 41.7374 996.526 37.6051L996.569 37.5185Z" fill="#CCE1F4"/>
<path d="M574.848 38.0175C576.183 29.1606 575.005 17.083 569.467 7.34235C569.074 6.67465 568.701 6.02656 568.308 5.35886C560.531 -7.75956 543.152 -15.9684 524.004 -11.1177C519.703 -21.0547 509.825 -28.0263 498.298 -28.0263C493.977 -28.0263 489.892 -27.0248 486.24 -25.277C471.236 -43.8941 439.598 -73.0375 390.247 -62.9237C341.053 -52.8296 318.273 -2.77142 318.273 -2.77142C301.187 -18.6196 265.74 -11.8051 248.458 4.65188C230.254 21.9729 230.587 35.1503 230.587 35.1503C218.529 27.4128 199.127 35.1503 195.847 46.678C193.216 55.8295 196.809 65.2166 205.313 69.753C205.804 69.9887 206.354 70.2244 206.864 70.4797C223.007 78.4332 232.944 74.0342 232.944 74.0342C252.19 115.51 288.521 104.729 305.135 96.2845C310.339 93.6333 321.042 89.0576 321.042 89.0576C321.042 89.0576 350.872 117.396 392.309 118.967C417.054 119.929 459.276 107.066 469.174 84.3443C513.557 109.874 591.933 90.3144 602.145 64.8827C606.21 54.769 602.243 30.5549 574.887 38.0371L574.848 38.0175Z" fill="white"/>
<path d="M602.106 64.8631C591.894 90.3144 513.537 109.874 469.135 84.3247C459.256 107.046 417.014 119.909 392.27 118.947C350.833 117.376 321.002 89.0379 321.002 89.0379C321.002 89.0379 310.3 93.6137 305.095 96.2649C288.481 104.709 252.131 115.491 232.905 74.0146C232.905 74.0146 222.968 78.4136 206.825 70.4601C206.334 70.2244 205.784 69.9888 205.274 69.7335C207.12 69.3996 208.926 69.0265 210.654 68.5944C234.437 62.9779 266.251 40.3152 287.342 61.5246C287.185 44.9891 270.512 33.6381 254.821 35.5431C261.852 25.5668 275.873 21.2856 287.44 25.4293C299.263 29.6515 307.393 42.279 306.431 54.769C320.079 48.2098 331.686 46.6387 346.513 49.2703C361.34 51.9214 371.061 61.1908 377.168 74.9965C372.651 50.586 359.769 36.7017 335.024 38.1353C334.219 24.1921 335.751 14.7068 344.156 3.53253C352.542 -7.66133 367.486 -14.5151 380.958 -10.8428C394.45 -7.15075 404.132 8.69743 398.967 21.6784C401.127 18.3595 409.041 16.4153 413.695 19.5771C417.348 22.0515 418.31 29.0428 417.446 31.91C421.158 21.1089 432.45 13.4499 443.86 13.9801C455.29 14.5104 465.816 23.1905 468.545 34.2862C470.411 13.607 450.773 -6.26702 430.094 -4.67632C458.805 -20.603 497.433 -10.1554 501.754 22.5425C512.85 -13.9456 561.887 -6.60085 569.447 7.28347C574.985 17.0241 576.498 30.6727 574.828 37.9586C602.204 30.4764 606.151 54.6905 602.086 64.8042L602.106 64.8631Z" fill="#CCE1F4"/>
<path d="M789.448 61.1779C807.509 65.3459 823.271 67.5736 836.853 68.5557C837.308 75.718 840.158 83.024 848.71 86.7129C854.076 89.0125 859.082 90.0664 863.633 90.282C866.268 110.978 876.952 132.8 910.224 132.393C937.005 132.034 954.563 122.716 965.965 112.128C970.061 116.44 974.924 119.865 980.769 121.662C989.56 124.345 997.153 123.698 1003.43 121.494C1003.57 122.812 1003.74 124.081 1004 125.375C1009.75 152.036 1030.09 177.618 1076.47 166.767C1095.27 162.336 1106.1 151.509 1112.32 140.13C1120.52 152.155 1134.72 162.408 1158.75 166.576C1181.96 170.576 1199.92 162.959 1213.48 151.365C1215.71 165.809 1227.66 177.331 1242.85 178.385C1256.02 179.295 1267.88 172.085 1273.56 161.018C1325.61 183.511 1364.11 139.052 1362.36 117.829C1368.75 125.734 1390.36 126.213 1402.84 120.416C1406.62 118.692 1409.91 115.985 1412.64 112.775C1420.78 116.703 1429.76 119.171 1439.3 119.841C1479.47 122.644 1514.3 92.366 1517.1 52.1951C1517.65 44.3382 1516.91 36.6489 1515.09 29.4148C1507.66 -0.384022 1481.77 -23.3559 1449.43 -25.6316C1438.1 -26.4221 1427.18 -24.5536 1417.28 -20.6252C1410.38 -32.0034 1395.7 -48.6275 1367.1 -53.7297C1363.82 -54.3285 1360.37 -54.6639 1356.78 -54.7118C1349.33 -82.4506 1324.96 -103.722 1294.71 -105.83C1263.09 -108.033 1234.99 -88.6307 1224.76 -60.2212C1220.67 -62.5208 1215.93 -64.2455 1210.49 -65.012C1205.24 -65.7546 1200.74 -65.4672 1196.86 -64.5809C1192.23 -72.1503 1185.07 -78.2107 1176.59 -80.8456C1164.78 -84.4388 1151.39 -81.157 1141.96 -73.2762C1135.22 -90.571 1118.96 -103.338 1099.22 -104.704C1075.46 -106.357 1054.45 -90.9782 1048.15 -68.9644C1027.34 -77.5879 1011.24 -69.5393 1001.92 -60.5566C990.039 -49.0826 983.859 -25.2483 989.081 -9.75005C974.109 -13.8941 962.132 -4.43225 964.791 10.8983C931.184 -8.8398 899.205 7.47291 881.767 20.6716C881.527 20.3362 881.264 20.0009 881 19.6655C864.16 5.24518 842.171 14.1082 838.937 25.5822C805.449 12.2158 772.345 17.9169 738.09 37.8227C737.875 37.9424 737.707 38.0862 737.515 38.206C729.012 44.2184 757.661 53.8479 789.4 61.1779H789.448Z" fill="white"/>
<path d="M789.448 61.1779C807.509 65.3459 823.271 67.5736 836.853 68.5557C837.308 75.718 840.158 83.024 848.71 86.7129C854.076 89.0125 859.082 90.0664 863.633 90.282C866.268 110.978 876.952 132.8 910.224 132.393C937.005 132.034 954.563 122.716 965.965 112.128C970.061 116.44 974.924 119.865 980.769 121.662C989.56 124.345 997.153 123.698 1003.43 121.494C1003.57 122.812 1003.74 124.081 1004 125.375C1009.75 152.036 1030.09 177.618 1076.47 166.767C1095.27 162.336 1106.1 151.509 1112.32 140.13C1120.52 152.155 1134.72 162.408 1158.75 166.576C1181.96 170.576 1199.92 162.959 1213.48 151.365C1215.71 165.809 1227.66 177.331 1242.85 178.385C1256.02 179.295 1267.88 172.085 1273.56 161.018C1325.61 183.511 1364.11 139.052 1362.36 117.829C1368.75 125.734 1390.36 126.213 1402.84 120.416C1406.62 118.692 1409.91 115.985 1412.64 112.775C1420.78 116.703 1429.76 119.171 1439.3 119.841C1479.47 122.644 1514.3 92.366 1517.1 52.1951C1517.65 44.3382 1516.91 36.6489 1515.09 29.4148C1490.89 23.2347 1463.8 24.7198 1447.25 58.2555C1435.63 35.6189 1414.53 38.2299 1408.73 53.824C1399.08 38.1101 1381.86 26.205 1358.31 20.2404C1334.31 14.1321 1316.41 25.5582 1304.29 36.9124C1304.6 37.0322 1304.91 37.128 1305.23 37.2478C1347.84 52.3628 1344.13 94.3063 1344.13 94.3063C1344.13 94.3063 1328.34 52.3628 1243.59 47.1408C1243.59 47.1408 1256.36 30.373 1284.36 32.5767C1274.95 18.1324 1259.47 7.7364 1241.01 5.3889C1231.95 4.26306 1223.16 5.22123 1214.99 7.80827C1214.8 5.46077 1214.51 3.11327 1214.01 0.765772C1210.94 -13.4629 1199.97 -27.0928 1185.46 -28.2905C1161.12 -30.3505 1139.9 -7.35465 1142.51 22.9712C1142.51 22.9712 1114.62 14.6352 1096.25 58.0399C1096.25 58.0399 1100.32 26.181 1120.71 8.3113C1109.23 -2.39616 1089.3 -2.25244 1081.9 0.334599C1064.73 6.37102 1058.98 18.9708 1057.85 31.379C1057.85 31.379 1043.17 21.0788 1030.81 26.9236C1015.29 34.2535 1020.01 50.4704 1020.01 50.4704C998.063 44.2184 988.889 40.4097 976.696 69.2504C998.83 62.2798 1021.54 70.3283 1036.27 88.8687C1014.38 74.0891 983.811 73.2986 961.15 86.9524C963.857 66.6633 936.214 50.0392 919.542 61.8965C916.859 43.6196 896.426 32.2893 878.317 35.7147C863.657 38.5174 854.531 51.7639 855.752 68.1245C845.069 41.2721 816.156 48.0511 778.07 45.1766C765.23 44.1945 749.205 44.6496 737.515 38.206C729.012 44.2184 757.661 53.8479 789.4 61.1779H789.448Z" fill="#CCE1F4"/>
<path d="M496.891 85.7549C496.347 86.3643 495.704 86.9563 494.904 87.4869C460.447 110.123 340.853 80.5815 340.853 80.5815C340.853 80.5815 340.488 105.993 318.825 105.149C304.375 104.573 294.697 91.4666 294.697 91.4666C294.697 91.4666 267.787 124.815 230.97 123.003C202.283 121.587 190.036 98.8841 190.036 98.8841C190.036 98.8841 176.075 151.162 102.771 136.37C70.8107 129.905 54.1249 114.616 45.4851 99.4415C34.054 105.35 20.2092 107.805 5.89308 99.255C-7.84427 91.0422 -13.6583 79.4597 -15.9341 69.3438C-38.6306 69.0227 -63.7334 62.3604 -80.1389 39.2234C-95.1287 18.1519 -92.0439 -6.67677 -80.0897 -26.1711C-71.7025 -39.9448 -58.8269 -50.9745 -44.7965 -56.1871C-6.0592 -70.5366 31.025 -55.8044 37.0426 -37.9681C44.4574 -57.8292 64.8371 -56.0025 70.803 -48.6951C76.8698 -75.1805 102.436 -95.0546 139.236 -93.1442C176.014 -91.3047 198.828 -66.3947 200.041 -42.1158C209.083 -54.4628 228.243 -57.8935 241.043 -49.5106C253.766 -41.0741 258.211 -22.1383 250.466 -8.95668C272.777 -29.239 307.003 -35.3799 334.986 -24.1074C363.003 -12.829 383.395 15.3157 385.388 45.4461C436.948 24.158 510.048 70.1032 496.945 85.8317L496.891 85.7549Z" fill="white"/>
<path d="M496.891 85.755C496.347 86.3643 495.704 86.9564 494.904 87.487C460.447 110.123 340.853 80.5816 340.853 80.5816C340.853 80.5816 340.488 105.993 318.825 105.149C304.375 104.573 294.697 91.4666 294.697 91.4666C294.697 91.4666 267.787 124.815 230.97 123.003C202.283 121.588 190.036 98.8842 190.036 98.8842C190.036 98.8842 176.075 151.162 102.771 136.37C70.8108 129.905 54.1249 114.616 45.4851 99.4415C34.054 105.35 20.2092 107.805 5.89309 99.255C-7.84426 91.0423 -13.6583 79.4597 -15.9341 69.3438C-38.6306 69.0227 -63.7334 62.3605 -80.1389 39.2235C-95.1287 18.152 -92.0439 -6.67673 -80.0897 -26.171C-52.3558 -13.8672 -44.5356 20.555 -42.222 24.7624C-44.9463 -6.74106 -10.7159 -35.5001 19.8672 -27.3299C48.3014 -19.7417 72.7872 3.88473 72.1223 41.8125C42.861 39.0857 13.7356 43.9449 1.71801 67.0242C25.876 48.6485 66.7662 44.7293 83.1033 70.3412C84.7253 59.4702 103.447 7.6322 140.532 -3.07757C177.617 -13.7873 225.162 11.9049 232.014 37.1819C249.189 6.04213 310.495 21.3991 325.81 41.587C306.356 43.4532 287.701 52.3844 274.046 66.3009C293.268 56.0587 303.317 58.3418 320.726 71.4394C335.132 43.607 363.502 55.3514 376.149 66.4967C399.972 47.9272 437.122 60.9571 451.204 66.8445C458.93 70.0944 478.108 78.9006 496.886 85.7876L496.891 85.755Z" fill="#CCE1F4"/>
</g>
<defs>
<clipPath id="clip0_101_2">
<rect width="1440" height="271" fill="white"/>
</clipPath>
</defs>
</svg>
